<svg xmlns="http://www.w3.org/2000/svg" viewBox="0 0 512 512" role="img" aria-label="CTA Master Chip" data-origin="designer-master">
  <title>ISA RICH CTA Master - Chip (Premium Skin)</title>
  <desc>Advanced editable chip master with pin rails, contrast panel, and command-line action motif.</desc>
  <g id="layer-shell">
    <rect x="64" y="128" width="384" height="256" rx="76" fill="#0b1020"/>
    <rect x="64" y="128" width="384" height="256" rx="76" fill="none" stroke="#6366f1" stroke-width="18"/>
    <rect x="106" y="168" width="118" height="176" rx="30" fill="#4338ca"/>
    <rect x="242" y="164" width="170" height="184" rx="32" fill="#111827" opacity="0.6"/>
  </g>

  <g id="layer-lines" stroke="#c7d2fe" stroke-width="24" stroke-linecap="round">
    <path d="M272 190h120"/>
    <path d="M272 256h120"/>
    <path d="M272 322h84"/>
  </g>

  <g id="layer-action" stroke="#eef2ff" stroke-width="20" stroke-linecap="round" stroke-linejoin="round">
    <path d="M165 223v66"/>
    <path d="M132 256h66"/>
  </g>

  <g id="layer-pins" stroke="#818cf8" stroke-width="12" stroke-linecap="round" opacity="0.95">
    <path d="M132 108v24M188 108v24M244 108v24M300 108v24M356 108v24"/>
    <path d="M132 380v24M188 380v24M244 380v24M300 380v24M356 380v24"/>
    <path d="M42 174h24M42 236h24M42 298h24M446 174h24M446 236h24M446 298h24"/>
  </g>
</svg>
